<svg width="798" height="784" viewBox="0 0 798 784" fill="none" xmlns="http://www.w3.org/2000/svg">
<g filter="url(#filter0_di_1202_1306)">
<path d="M336.471 38.3551C359.562 28.9918 371.108 24.3102 383.038 22.4571C393.616 20.8141 404.384 20.8141 414.962 22.4571C426.892 24.3102 438.438 28.9918 461.529 38.3551L603.837 96.0601C627.407 105.617 639.191 110.396 649.202 117.555C658.078 123.903 665.899 131.607 672.379 140.386C679.688 150.288 684.644 162 694.555 185.423L751.564 320.158C761.683 344.073 766.743 356.031 768.743 368.419C770.517 379.402 770.517 390.598 768.743 401.581C766.743 413.969 761.683 425.927 751.564 449.842L694.555 584.577C684.644 608 679.688 619.712 672.379 629.614C665.899 638.393 658.078 646.097 649.202 652.445C639.191 659.604 627.407 664.383 603.837 673.94L461.529 731.645C438.438 741.008 426.892 745.69 414.962 747.543C404.384 749.186 393.616 749.186 383.038 747.543C371.108 745.69 359.562 741.008 336.471 731.645L194.163 673.94C170.593 664.383 158.809 659.604 148.798 652.445C139.922 646.097 132.101 638.393 125.621 629.614C118.312 619.712 113.356 608 103.445 584.577L46.436 449.842C36.317 425.927 31.2574 413.969 29.2568 401.581C27.4832 390.598 27.4832 379.402 29.2568 368.419C31.2574 356.031 36.3169 344.073 46.436 320.158L103.445 185.423C113.356 162 118.311 150.288 125.621 140.386C132.101 131.607 139.922 123.903 148.798 117.555C158.809 110.396 170.593 105.617 194.163 96.0601L336.471 38.3551Z" fill="url(#paint0_angular_1202_1306)"/>
<path d="M338.143 42.4789C361.426 33.0378 372.42 28.6097 383.721 26.8544C393.846 25.2817 404.154 25.2817 414.279 26.8544C425.58 28.6097 436.574 33.0378 459.857 42.4789L602.165 100.184C625.931 109.821 637.131 114.393 646.614 121.175C655.109 127.251 662.596 134.626 668.799 143.029C675.723 152.409 680.463 163.539 690.456 187.157L747.466 321.892C757.669 346.007 762.455 357.394 764.35 369.129C766.048 379.642 766.048 390.358 764.35 400.871C762.455 412.606 757.669 423.993 747.466 448.108L690.456 582.843C680.463 606.461 675.723 617.591 668.799 626.971C662.596 635.374 655.109 642.749 646.614 648.825C637.131 655.607 625.931 660.179 602.165 669.816L459.857 727.521C436.574 736.962 425.58 741.39 414.279 743.146C404.154 744.718 393.846 744.718 383.721 743.146C372.42 741.39 361.426 736.962 338.143 727.521L195.835 669.816C172.069 660.179 160.869 655.607 151.386 648.825C142.89 642.749 135.404 635.374 129.201 626.971C122.277 617.591 117.537 606.461 107.544 582.843L50.5342 448.108C40.3308 423.993 35.545 412.606 33.6498 400.871C31.9521 390.358 31.9521 379.642 33.6498 369.129C35.545 357.394 40.3308 346.007 50.5342 321.892L107.544 187.157C117.537 163.539 122.277 152.409 129.201 143.029C135.404 134.626 142.89 127.251 151.386 121.175C160.869 114.393 172.069 109.821 195.835 100.184L338.143 42.4789Z" stroke="url(#paint1_linear_1202_1306)" stroke-width="8.9" stroke-linecap="round"/>
</g>
<defs>
<filter id="filter0_di_1202_1306" x="0.339695" y="0.754859" width="797.321" height="782.73" filterUnits="userSpaceOnUse" color-interpolation-filters="sRGB">
<feFlood flood-opacity="0" result="BackgroundImageFix"/>
<feColorMatrix in="SourceAlpha" type="matrix" values="0 0 0 0 0 0 0 0 0 0 0 0 0 0 0 0 0 0 127 0" result="hardAlpha"/>
<feOffset dy="7.12"/>
<feGaussianBlur stdDeviation="13.795"/>
<feComposite in2="hardAlpha" operator="out"/>
<feColorMatrix type="matrix" values="0 0 0 0 0 0 0 0 0 0 0 0 0 0 0 0 0 0 0.2 0"/>
<feBlend mode="normal" in2="BackgroundImageFix" result="effect1_dropShadow_1202_1306"/>
<feBlend mode="normal" in="SourceGraphic" in2="effect1_dropShadow_1202_1306" result="shape"/>
<feColorMatrix in="SourceAlpha" type="matrix" values="0 0 0 0 0 0 0 0 0 0 0 0 0 0 0 0 0 0 127 0" result="hardAlpha"/>
<feOffset dy="7.12"/>
<feGaussianBlur stdDeviation="17.355"/>
<feComposite in2="hardAlpha" operator="arithmetic" k2="-1" k3="1"/>
<feColorMatrix type="matrix" values="0 0 0 0 0 0 0 0 0 0 0 0 0 0 0 0 0 0 1 0"/>
<feBlend mode="normal" in2="shape" result="effect2_innerShadow_1202_1306"/>
</filter>
<radialGradient id="paint0_angular_1202_1306" cx="0" cy="0" r="1" gradientUnits="userSpaceOnUse" gradientTransform="translate(399 385) rotate(20.9692) scale(637.557 627.609)">
<stop offset="0.15" stop-color="#00103E"/>
<stop offset="0.327417" stop-color="#16A2F8"/>
<stop offset="0.480844" stop-color="#291581"/>
<stop offset="0.51" stop-color="#533DB3"/>
<stop offset="0.67" stop-color="#251374"/>
<stop offset="0.755" stop-color="#5B45BF"/>
<stop offset="0.94" stop-color="#23126D"/>
</radialGradient>
<linearGradient id="paint1_linear_1202_1306" x1="399" y1="13" x2="399" y2="757" gradientUnits="userSpaceOnUse">
<stop stop-color="#6041FF"/>
<stop offset="1" stop-color="#6041FF" stop-opacity="0"/>
</linearGradient>
</defs>
</svg>
